<svg xmlns="http://www.w3.org/2000/svg" version="1.0" viewBox="0 0 1280 640">
  <defs/>
  <path fill="#0A0F24" d="M0 0h1280v640H0z"/>
  <g fill="silver">
    <path d="M71 219l1-2 3 1 1-3h1v3h3v1l-3 1 2 3-2 1-2-2-2 2-2-1 3-3-3-1zM86 219l1-2 3 1v-3h2l-1 3h4v1l-4 1 2 3-1 1-2-2-3 2-1-1 3-3-3-1zM101 219l1-2 2 1 1-3h2l-1 3h3l1 1-4 1 2 3-2 1-2-2-2 2-1-1 2-3-2-1zM115 219l1-2 3 1 1-3h1v3h3v1l-3 1 2 3-2 1-2-2-2 2-2-1 3-3-3-1zM130 219l1-2 3 1v-3h2l-1 3h4v1l-4 1 2 3-1 1-2-2-3 2-1-1 3-3-3-1zM174 219l1-2 3 1v-3h2l-1 3h4v1l-4 1 2 3-1 1-2-2-3 2-1-1 3-3-3-1zM262 219l1-2 3 1v-3h2l-1 3h4v1l-4 1 2 3-1 1-2-2-3 2-1-1 3-3-3-1zM335 219l1-2 3 1 1-3h1v3h3l1 1-4 1 2 3-2 1-2-2-2 2-2-1 3-3-3-1zM409 219l1-2 2 1 1-3h2l-1 3h3l1 1-4 1 2 3-1 1-2-2-3 2-1-1 2-3-2-1zM526 219l1-2 3 1 1-3h1v3h3v1l-3 1 2 3-2 1-2-2-3 2-1-1 3-3-3-1zM644 219l1-2 2 1 1-3h2l-1 3h3l1 1-4 1 2 3-2 1-2-2-2 2-1-1 2-3-2-1zM658 219l1-2 3 1 1-3h1v3h3v1l-3 1 2 3-2 1-2-2-2 2-2-1 3-3-3-1zM673 219l1-2 2 1 1-3h2l-1 3h3l1 1-4 1 2 3-1 1-2-2-3 2-1-1 2-3-2-1zM688 219l1-2 2 1 1-3h2l-1 3h3l1 1-4 1 2 3-2 1-2-2-2 2-1-1 2-3-2-1zM702 219l1-2 3 1 1-3h1v3h3v1l-3 1 2 3-2 1-2-2-2 2-2-1 3-3-3-1zM717 219l1-2 3 1v-3h2l-1 3h4v1l-4 1 2 3-1 1-2-2-3 2-1-1 3-3-3-1zM732 219l1-2 2 1 1-3h2l-1 3h3l1 1-4 1 2 3-2 1-2-2-2 2-1-1 2-3-2-1zM761 219l1-2 3 1v-3h2l-1 3h4v1l-4 1 2 3-1 1-2-2-3 2-1-1 3-3-3-1zM849 219l1-2 3 1v-3h2l-1 3h4v1l-4 1 2 3-1 1-2-2-3 2-1-1 3-3-3-1zM893 219l1-2 3 1 1-3h1v3h3v1l-3 1 1 3-1 1-2-2-3 2-1-1 3-3-3-1zM908 219l1-2 2 1 1-3h2l-1 3h3l1 1-4 1 2 3-1 1-3-2-2 2-1-1 2-3-2-1zM922 219l1-2 3 1 1-3h1v3h3l1 1-4 1 2 3-2 1-2-2-2 2-2-1 3-3-3-1zM937 219l1-2 3 1 1-3h1v3h3v1l-3 1 1 3-1 1-2-2-3 2-1-1 3-3-3-1zM952 219l1-2 2 1 1-3h2l-1 3h3l1 1-4 1 2 3-1 1-3-2-2 2-1-1 2-3-2-1zM996 219l1-2 2 1 1-3h2l-1 3h3l1 1-4 1 2 3-1 1-3-2-2 2-1-1 2-3-2-1zM1011 219l1-2 2 1 1-3h1v3h3l1 1-4 1 2 3-2 1-2-2-2 2-2-1 3-3-2-1zM1025 219l1-2 3 1v-3h2l-1 3h4v1l-4 1 2 3-1 1-2-2-3 2-1-1 3-3-3-1zM1040 219l1-2 2 1 1-3h2l-1 3h3l1 1-4 1 2 3-1 1-3-2-2 2-1-1 2-3-2-1zM1055 219l1-2 2 1 1-3h1v3h3l1 1-4 1 2 3-2 1-2-2-2 2-2-1 3-3-2-1zM1069 219l1-2 3 1 1-3h1v3h3v1l-3 1 1 3-1 1-2-2-2 2-2-1 3-3-3-1zM1084 219l1-2 2 1 1-3h2l-1 3h3l1 1-4 1 2 3-1 1-3-2-2 2-1-1 2-3-2-1zM1128 219l1-2 3 1v-3h2l-1 3h3l1 1-4 1 2 3-1 1-2-2-3 2-1-1 3-3-3-1zM1143 219l1-2 2 1 1-3h1v3h3l1 1-4 1 2 3-2 1-2-2-2 2-2-1 3-3-2-1zM1157 219l1-2 3 1 1-3h1v3h3v1l-3 1 1 3-1 1-2-2-2 2-2-1 3-3-3-1zM1172 219l1-2 3 1v-3h2l-1 3h3l1 1-4 1 2 3-1 1-2-2-3 2-1-1 3-3-3-1zM1187 219l1-2 2 1 1-3h2l-1 3h3l1 1-4 1 2 3-2 1-2-2-2 2-1-1 2-3-2-1zM57 251l1-2 2 1 1-3h2l-1 3h3l1 1-4 1 2 3-2 1-2-2-2 2-1-1 2-3-2-1zM145 251l1-2 2 1 1-3h2l-1 3h3l1 1-4 1 2 3-2 1-2-2-2 2-1-1 2-3-2-1zM174 251l1-2 3 1v-3h2l-1 3h4v1l-4 1 2 3-1 1-2-2-3 2-1-1 3-3-3-1zM262 251l1-2 3 1v-3h2l-1 3h4v1l-4 1 2 3-1 1-2-2-3 2-1-1 3-3-3-1zM321 251l1-2 2 1 1-3h2l-1 3h3l1 1-4 1 2 3-1 1-3-2-2 2-1-1 2-3-2-1zM350 251l1-2 3 1 1-3h1v3h3v1l-3 1 1 3-1 1-2-2-3 2-1-1 3-3-3-1zM409 251l1-2 2 1 1-3h2l-1 3h3l1 1-4 1 2 3-1 1-2-2-3 2-1-1 2-3-2-1zM526 251l1-2 3 1 1-3h1v3h3v1l-3 1 2 3-2 1-2-2-3 2-1-1 3-3-3-1zM644 251l1-2 2 1 1-3h2l-1 3h3l1 1-4 1 2 3-2 1-2-2-2 2-1-1 2-3-2-1zM761 251l1-2 3 1v-3h2l-1 3h4v1l-4 1 2 3-1 1-2-2-3 2-1-1 3-3-3-1zM776 251l1-2 2 1 1-3h2l-1 3h3l1 1-4 1 2 3-1 1-3-2-2 2-1-1 2-3-2-1zM849 251l1-2 3 1v-3h2l-1 3h4v1l-4 1 2 3-1 1-2-2-3 2-1-1 3-3-3-1zM878 251l1-2 3 1 1-3h1v3h3l1 1-4 1 2 3-2 1-2-2-2 2-2-1 3-3-3-1zM966 251l1-2 3 1 1-3h1v3h3l1 1-4 1 2 3-2 1-2-2-2 2-2-1 3-3-3-1zM996 251l1-2 2 1 1-3h2l-1 3h3l1 1-4 1 2 3-1 1-3-2-2 2-1-1 2-3-2-1zM1113 251l1-2 3 1 1-3h1v3h3v1l-3 1 1 3-1 1-2-2-2 2-2-1 3-3-3-1zM1201 251l1-2 3 1 1-3h1v3h3v1l-3 1 1 3-1 1-2-2-2 2-2-1 3-3-3-1zM57 283l1-2 2 1 1-3h2l-1 3h3l1 1-4 1 2 3-2 1-2-2-2 2-1-1 2-3-2-1zM174 283l1-2 3 1v-3h2l-1 3h4v1l-4 1 2 3-1 1-2-2-3 2-1-1 3-3-3-1zM262 283l1-2 3 1v-3h2l-1 3h4v1l-4 1 2 3-1 1-2-2-3 2-1-1 3-3-3-1zM306 283l1-2 3 1 1-3h1v3h3v1l-3 1 1 3-1 1-2-2-3 2-1-1 3-3-3-1zM365 283l1-2 2 1 1-3h2l-1 3h3l1 1-4 1 2 3-1 1-2-2-3 2-1-1 2-3-2-1zM409 283l1-2 2 1 1-3h2l-1 3h3l1 1-4 1 2 3-1 1-2-2-3 2-1-1 2-3-2-1zM526 283l1-2 3 1 1-3h1v3h3v1l-3 1 2 3-2 1-2-2-3 2-1-1 3-3-3-1zM644 283l1-2 2 1 1-3h2l-1 3h3l1 1-4 1 2 3-2 1-2-2-2 2-1-1 2-3-2-1zM761 283l1-2 3 1v-3h2l-1 3h4v1l-4 1 2 3-1 1-2-2-3 2-1-1 3-3-3-1zM790 283l1-2 3 1 1-3h1v3h3v1l-3 1 2 3-2 1-2-2-2 2-2-1 3-3-3-1zM849 283l1-2 3 1v-3h2l-1 3h4v1l-4 1 2 3-1 1-2-2-3 2-1-1 3-3-3-1zM878 283l1-2 3 1 1-3h1v3h3l1 1-4 1 2 3-2 1-2-2-2 2-2-1 3-3-3-1zM996 283l1-2 2 1 1-3h2l-1 3h3l1 1-4 1 2 3-1 1-3-2-2 2-1-1 2-3-2-1zM1113 283l1-2 3 1 1-3h1v3h3v1l-3 1 1 3-1 1-2-2-2 2-2-1 3-3-3-1zM57 315l1-2 2 1 1-3h2l-1 3h3l1 1-4 1 2 3-2 1-2-2-2 2-1-1 2-3-2-1zM174 315l1-2 3 1v-3h2l-1 3h4v1l-4 1 2 3-1 1-2-2-3 2-1-1 3-3-3-1zM189 315l1-2 2 1 1-3h2l-1 3h3l1 1-4 1 2 3-1 1-3-2-2 2-1-1 2-3-2-1zM203 315l1-2 3 1 1-3h1v3h3v1l-3 1 2 3-2 1-2-2-2 2-2-1 3-3-3-1zM218 315l1-2 3 1v-3h2l-1 3h4v1l-4 1 2 3-1 1-2-2-3 2-1-1 3-3-3-1zM233 315l1-2 2 1 1-3h2l-1 3h3l1 1-4 1 2 3-1 1-3-2-2 2-1-1 2-3-2-1zM247 315l1-2 3 1 1-3h1v3h3l1 1-4 1 2 3-2 1-2-2-2 2-2-1 3-3-3-1zM262 315l1-2 3 1v-3h2l-1 3h4v1l-4 1 2 3-1 1-2-2-3 2-1-1 3-3-3-1zM291 315l1-2 3 1 1-3h1v3h3l1 1-4 1 2 3-2 1-2-2-2 2-2-1 3-3-3-1zM379 315l1-2 3 1 1-3h1v3h3l1 1-4 1 2 3-2 1-2-2-2 2-2-1 3-3-3-1zM409 315l1-2 2 1 1-3h2l-1 3h3l1 1-4 1 2 3-1 1-2-2-3 2-1-1 2-3-2-1zM526 315l1-2 3 1 1-3h1v3h3v1l-3 1 2 3-2 1-2-2-3 2-1-1 3-3-3-1zM644 315l1-2 2 1 1-3h2l-1 3h3l1 1-4 1 2 3-2 1-2-2-2 2-1-1 2-3-2-1zM658 315l1-2 3 1 1-3h1v3h3v1l-3 1 2 3-2 1-2-2-2 2-2-1 3-3-3-1zM673 315l1-2 2 1 1-3h2l-1 3h3l1 1-4 1 2 3-1 1-2-2-3 2-1-1 2-3-2-1zM688 315l1-2 2 1 1-3h2l-1 3h3l1 1-4 1 2 3-2 1-2-2-2 2-1-1 2-3-2-1zM702 315l1-2 3 1 1-3h1v3h3v1l-3 1 2 3-2 1-2-2-2 2-2-1 3-3-3-1zM761 315l1-2 3 1v-3h2l-1 3h4v1l-4 1 2 3-1 1-2-2-3 2-1-1 3-3-3-1zM805 315l1-2 3 1v-3h2l-1 3h4v1l-4 1 2 3-1 1-2-2-3 2-1-1 3-3-3-1zM849 315l1-2 3 1v-3h2l-1 3h4v1l-4 1 2 3-1 1-2-2-3 2-1-1 3-3-3-1zM878 315l1-2 3 1 1-3h1v3h3l1 1-4 1 2 3-2 1-2-2-2 2-2-1 3-3-3-1zM922 315l1-2 3 1 1-3h1v3h3l1 1-4 1 2 3-2 1-2-2-2 2-2-1 3-3-3-1zM937 315l1-2 3 1 1-3h1v3h3v1l-3 1 1 3-1 1-2-2-3 2-1-1 3-3-3-1zM952 315l1-2 2 1 1-3h2l-1 3h3l1 1-4 1 2 3-1 1-3-2-2 2-1-1 2-3-2-1zM966 315l1-2 3 1 1-3h1v3h3l1 1-4 1 2 3-2 1-2-2-2 2-2-1 3-3-3-1zM996 315l1-2 2 1 1-3h2l-1 3h3l1 1-4 1 2 3-1 1-3-2-2 2-1-1 2-3-2-1zM1011 315l1-2 2 1 1-3h1v3h3l1 1-4 1 2 3-2 1-2-2-2 2-2-1 3-3-2-1zM1025 315l1-2 3 1v-3h2l-1 3h4v1l-4 1 2 3-1 1-2-2-3 2-1-1 3-3-3-1zM1040 315l1-2 2 1 1-3h2l-1 3h3l1 1-4 1 2 3-1 1-3-2-2 2-1-1 2-3-2-1zM1055 315l1-2 2 1 1-3h1v3h3l1 1-4 1 2 3-2 1-2-2-2 2-2-1 3-3-2-1zM1128 315l1-2 3 1v-3h2l-1 3h3l1 1-4 1 2 3-1 1-2-2-3 2-1-1 3-3-3-1zM1143 315l1-2 2 1 1-3h1v3h3l1 1-4 1 2 3-2 1-2-2-2 2-2-1 3-3-2-1zM1157 315l1-2 3 1 1-3h1v3h3v1l-3 1 1 3-1 1-2-2-2 2-2-1 3-3-3-1zM1172 315l1-2 3 1v-3h2l-1 3h3l1 1-4 1 2 3-1 1-2-2-3 2-1-1 3-3-3-1zM1187 315l1-2 2 1 1-3h2l-1 3h3l1 1-4 1 2 3-2 1-2-2-2 2-1-1 2-3-2-1zM57 347l1-2 2 1 1-3h2l-1 4 3-1 1 1-4 1 2 3-2 1-2-2-2 2-1-1 2-3-2-1zM174 347l1-2 3 1v-3h2l-1 4 4-1v1l-4 1 2 3-1 1-2-2-3 2-1-1 3-3-3-1zM262 347l1-2 3 1v-3h2l-1 4 4-1v1l-4 1 2 3-1 1-2-2-3 2-1-1 3-3-3-1zM291 347l1-2 3 1 1-3h1v4l3-1 1 1-4 1 2 3-2 1-2-2-2 2-2-1 3-3-3-1zM306 347l1-2 3 1 1-3h1v4l3-1v1l-3 1 1 3-1 1-2-2-3 2-1-1 3-3-3-1zM321 347l1-2 2 1 1-3h2l-1 4 3-1 1 1-4 1 2 3-1 1-3-2-2 2-1-1 2-3-2-1zM335 347l1-2 3 1 1-3h1v4l3-1 1 1-4 1 2 3-2 1-2-2-2 2-2-1 3-3-3-1zM350 347l1-2 3 1 1-3h1v4l3-1v1l-3 1 1 3-1 1-2-2-3 2-1-1 3-3-3-1zM365 347l1-2 2 1 1-3h2l-1 4 3-1 1 1-4 1 2 3-1 1-2-2-3 2-1-1 2-3-2-1zM379 347l1-2 3 1 1-3h1v4l3-1 1 1-4 1 2 3-2 1-2-2-2 2-2-1 3-3-3-1zM409 347l1-2 2 1 1-3h2l-1 4 3-1 1 1-4 1 2 3-1 1-2-2-3 2-1-1 2-3-2-1zM526 347l1-2 3 1 1-3h1v4l3-1v1l-3 1 2 3-2 1-2-2-3 2-1-1 3-3-3-1zM644 347l1-2 2 1 1-3h2l-1 4 3-1 1 1-4 1 2 3-2 1-2-2-2 2-1-1 2-3-2-1zM761 347l1-2 3 1v-3h2l-1 4 4-1v1l-4 1 2 3-1 1-2-2-3 2-1-1 3-3-3-1zM820 347l1-2 2 1 1-3h2l-1 4 3-1 1 1-4 1 2 3-1 1-3-2-2 2-1-1 2-3-2-1zM849 347l1-2 3 1v-3h2l-1 4 4-1v1l-4 1 2 3-1 1-2-2-3 2-1-1 3-3-3-1zM878 347l1-2 3 1 1-3h1v4l3-1 1 1-4 1 2 3-2 1-2-2-2 2-2-1 3-3-3-1zM966 347l1-2 3 1 1-3h1v4l3-1 1 1-4 1 2 3-2 1-2-2-2 2-2-1 3-3-3-1zM996 347l1-2 2 1 1-3h2l-1 4 3-1 1 1-4 1 2 3-1 1-3-2-2 2-1-1 2-3-2-1zM1201 347l1-2 3 1 1-3h1v4l3-1v1l-3 1 1 3-1 1-2-2-2 2-2-1 3-3-3-1zM57 379l1-2 2 1 1-3h2l-1 4 3-1 1 1-4 1 2 3-2 1-2-2-2 2-1-1 2-3-2-1zM145 379l1-2 2 1 1-3h2l-1 4 3-1 1 1-4 1 2 3-2 1-2-2-2 2-1-1 2-3-2-1zM174 379l1-2 3 1v-3h2l-1 4 4-1v1l-4 1 2 3-1 1-2-2-3 2-1-1 3-3-3-1zM262 379l1-2 3 1v-3h2l-1 4 4-1v1l-4 1 2 3-1 1-2-2-3 2-1-1 3-3-3-1zM291 379l1-2 3 1 1-3h1v4l3-1 1 1-4 1 2 3-2 1-2-2-2 2-2-1 3-3-3-1zM379 379l1-2 3 1 1-3h1v4l3-1 1 1-4 1 2 3-2 1-2-2-2 2-2-1 3-3-3-1zM409 379l1-2 2 1 1-3h2l-1 4 3-1 1 1-4 1 2 3-1 1-2-2-3 2-1-1 2-3-2-1zM526 379l1-2 3 1 1-3h1v4l3-1v1l-3 1 2 3-2 1-2-2-3 2-1-1 3-3-3-1zM644 379l1-2 2 1 1-3h2l-1 4 3-1 1 1-4 1 2 3-2 1-2-2-2 2-1-1 2-3-2-1zM761 379l1-2 3 1v-3h2l-1 4 4-1v1l-4 1 2 3-1 1-2-2-3 2-1-1 3-3-3-1zM834 379l1-2 3 1 1-3h1v4l3-1 1 1-4 1 2 3-2 1-2-2-2 2-2-1 3-3-3-1zM849 379l1-2 3 1v-3h2l-1 4 4-1v1l-4 1 2 3-1 1-2-2-3 2-1-1 3-3-3-1zM878 379l1-2 3 1 1-3h1v4l3-1 1 1-4 1 2 3-2 1-2-2-2 2-2-1 3-3-3-1zM966 379l1-2 3 1 1-3h1v4l3-1 1 1-4 1 2 3-2 1-2-2-2 2-2-1 3-3-3-1zM996 379l1-2 2 1 1-3h2l-1 4 3-1 1 1-4 1 2 3-1 1-3-2-2 2-1-1 2-3-2-1zM1113 379l1-2 3 1 1-3h1v4l3-1v1l-3 1 1 3-1 1-2-2-2 2-2-1 3-3-3-1zM1201 379l1-2 3 1 1-3h1v4l3-1v1l-3 1 1 3-1 1-2-2-2 2-2-1 3-3-3-1zM71 411l1-2 3 1 1-3h1v4l3-1v1l-3 1 2 3-2 1-2-2-2 2-2-1 3-3-3-1zM86 411l1-2 3 1v-3h2l-1 4 3-1 1 1-4 1 2 3-1 1-2-2-3 2-1-1 3-3-3-1zM101 411l1-2 2 1 1-3h2l-1 4 3-1 1 1-4 1 2 3-2 1-2-2-2 2-1-1 2-3-2-1zM115 411l1-2 3 1 1-3h1v4l3-1v1l-3 1 2 3-2 1-2-2-2 2-2-1 3-3-3-1zM130 411l1-2 3 1v-3h2l-1 4 4-1v1l-4 1 2 3-1 1-2-2-3 2-1-1 3-3-3-1zM174 411l1-2 3 1v-3h2l-1 4 4-1v1l-4 1 2 3-1 1-2-2-3 2-1-1 3-3-3-1zM262 411l1-2 3 1v-3h2l-1 4 4-1v1l-4 1 2 3-1 1-2-2-3 2-1-1 3-3-3-1zM291 411l1-2 3 1 1-3h1v4l3-1 1 1-4 1 2 3-2 1-2-2-2 2-2-1 3-3-3-1zM379 411l1-2 3 1 1-3h1v4l3-1 1 1-4 1 2 3-2 1-2-2-2 2-2-1 3-3-3-1zM409 411l1-2 2 1 1-3h2l-1 4 3-1 1 1-4 1 2 3-1 1-2-2-3 2-1-1 2-3-2-1zM424 411l1-2 2 1 1-3h2l-1 4 3-1 1 1-4 1 2 3-2 1-2-2-2 2-1-1 2-3-2-1zM438 411l1-2 3 1 1-3h1v4l3-1v1l-3 1 1 3-1 1-2-2-2 2-2-1 3-3-3-1zM453 411l1-2 2 1 1-3h2l-1 4 3-1 1 1-4 1 2 3-1 1-2-2-3 2-1-1 2-3-2-1zM468 411l1-2 2 1 1-3h2l-1 4 3-1 1 1-4 1 2 3-2 1-2-2-2 2-1-1 2-3-2-1zM482 411l1-2 3 1 1-3h1v4l3-1v1l-3 1 2 3-2 1-2-2-3 2-1-1 3-3-3-1zM497 411l1-2 2 1 1-3h2l-1 4 3-1 1 1-4 1 2 3-1 1-2-2-3 2-1-1 2-3-2-1zM526 411l1-2 3 1 1-3h1v4l3-1v1l-3 1 2 3-2 1-2-2-3 2-1-1 3-3-3-1zM541 411l1-2 2 1 1-3h2l-1 4 3-1 1 1-4 1 2 3-1 1-2-2-3 2-1-1 2-3-2-1zM556 411l1-2 2 1 1-3h1v4l3-1 1 1-4 1 2 3-2 1-2-2-2 2-2-1 3-3-2-1zM570 411l1-2 3 1 1-3h1v4l3-1v1l-3 1 2 3-2 1-2-2-3 2-1-1 3-3-3-1zM585 411l1-2 2 1 1-3h2l-1 4 3-1 1 1-4 1 2 3-1 1-2-2-3 2-1-1 2-3-2-1zM600 411l1-2 2 1 1-3h2l-1 4 3-1 1 1-4 1 2 3-2 1-2-2-2 2-1-1 2-3-2-1zM614 411l1-2 3 1 1-3h1v4l3-1v1l-3 1 2 3-2 1-2-2-3 2-1-1 3-3-3-1zM644 411l1-2 2 1 1-3h2l-1 4 3-1 1 1-4 1 2 3-2 1-2-2-2 2-1-1 2-3-2-1zM658 411l1-2 3 1 1-3h1v4l3-1v1l-3 1 2 3-2 1-2-2-2 2-2-1 3-3-3-1zM673 411l1-2 2 1 1-3h2l-1 4 3-1 1 1-4 1 2 3-1 1-2-2-3 2-1-1 2-3-2-1zM688 411l1-2 2 1 1-3h2l-1 4 3-1 1 1-4 1 2 3-2 1-2-2-2 2-1-1 2-3-2-1zM702 411l1-2 3 1 1-3h1v4l3-1v1l-3 1 2 3-2 1-2-2-2 2-2-1 3-3-3-1zM717 411l1-2 3 1v-3h2l-1 4 4-1v1l-4 1 2 3-1 1-2-2-3 2-1-1 3-3-3-1zM732 411l1-2 2 1 1-3h2l-1 4 3-1 1 1-4 1 2 3-2 1-2-2-2 2-1-1 2-3-2-1zM761 411l1-2 3 1v-3h2l-1 4 4-1v1l-4 1 2 3-1 1-2-2-3 2-1-1 3-3-3-1zM849 411l1-2 3 1v-3h2l-1 4 4-1v1l-4 1 2 3-1 1-2-2-3 2-1-1 3-3-3-1zM893 411l1-2 3 1 1-3h1v4l3-1v1l-3 1 1 3-1 1-2-2-2 2-2-1 3-3-3-1zM908 411l1-2 2 1 1-3h2l-1 4 3-1 1 1-4 1 2 3-1 1-3-2-2 2-1-1 2-3-2-1zM922 411l1-2 3 1 1-3h1v4l3-1 1 1-4 1 2 3-2 1-2-2-2 2-2-1 3-3-3-1zM937 411l1-2 3 1 1-3h1v4l3-1v1l-3 1 1 3-1 1-2-2-2 2-2-1 3-3-3-1zM952 411l1-2 2 1 1-3h2l-1 4 3-1 1 1-4 1 2 3-1 1-3-2-2 2-1-1 2-3-2-1zM996 411l1-2 2 1 1-3h2l-1 4 3-1 1 1-4 1 2 3-1 1-3-2-2 2-1-1 2-3-2-1zM1011 411l1-2 2 1 1-3h1v4l3-1 1 1-4 1 2 3-2 1-2-2-2 2-2-1 3-3-2-1zM1025 411l1-2 3 1v-3h2l-1 4 4-1v1l-4 1 2 3-1 1-2-2-3 2-1-1 3-3-3-1zM1040 411l1-2 2 1 1-3h2l-1 4 3-1 1 1-4 1 2 3-1 1-3-2-2 2-1-1 2-3-2-1zM1055 411l1-2 2 1 1-3h1v4l3-1 1 1-4 1 2 3-2 1-2-2-2 2-2-1 3-3-2-1zM1069 411l1-2 3 1 1-3h1v4l3-1v1l-3 1 1 3-1 1-2-2-2 2-2-1 3-3-3-1zM1084 411l1-2 2 1 1-3h2l-1 4 3-1 1 1-4 1 2 3-1 1-3-2-2 2-1-1 2-3-2-1zM1128 411l1-2 3 1v-3h2l-1 4 3-1 1 1-4 1 2 3-1 1-2-2-3 2-1-1 3-3-3-1zM1143 411l1-2 2 1 1-3h1v4l3-1 1 1-4 1 2 3-2 1-2-2-2 2-2-1 3-3-2-1zM1157 411l1-2 3 1 1-3h1v4l3-1v1l-3 1 1 3-1 1-2-2-2 2-2-1 3-3-3-1zM1172 411l1-2 3 1v-3h2l-1 4 3-1 1 1-4 1 2 3-1 1-2-2-3 2-1-1 3-3-3-1zM1187 411l1-2 2 1 1-3h2l-1 4 3-1 1 1-4 1 2 3-2 1-2-2-2 2-1-1 2-3-2-1z"/>
  </g>
  <path fill="#F8F95D" d="M808 296l-12-36-137 44V160h-38v144l-137-44-12 36 137 45-85 116 31 23 85-117 85 117 31-23-85-116zM1272 75l-1-3-14 4V62h-4v14l-13-4-2 3 14 5-8 12 3 2 8-12 9 12 3-2-9-12z"/>
  <g fill="#FFF" stroke="#0A0F24" stroke-miterlimit="10" stroke-width="2">
    <path d="M348 163l-17 9v16l-5 3-1-58 9-4 27 44-5 2-8-12zm-3-4l-12-20-1 1-1 27 14-8zM394 145l2 9c-3 4-6 6-10 8-10 5-20-1-22-11-2-11 2-23 13-28 6-2 11-1 15 3l1 6c-5-5-9-7-14-4-7 2-11 11-9 20 1 9 7 12 15 9 5-2 8-6 9-12zm-5-40l7 49c0 2 2 3 5 2l6-4-2-2-1 1a1352 1352 0 01-8-44l-1-5-6 3zM445 100l-11 43-6 2-20-33 7-2 15 25 8-33 7-2zM465 116c1 7 6 11 13 9 4-1 8-3 12-8l4 3c-4 5-9 8-15 10-10 3-19-2-20-12-1-12 4-24 16-28 9-2 16 3 16 8 2 11-17 16-26 18zm0-4c10-3 21-7 20-13-1-3-5-5-10-4-7 2-11 10-10 17zM512 102v19l-6 2V85l8-2-2 5v14zm31 11c-3 4-7 5-7 5-3 0-4-1-4-4l2-18c1-7-3-12-9-11s-9 6-13 19v-2-7c3-10 7-14 14-15 9-2 15 5 14 14l-3 17 1 1 4-1 1 2zM568 101c0 5 2 7 6 7 3-1 7-3 9-8l2 2c-3 5-6 10-12 11-7 1-11-3-12-10l1-3 2-16v-4l-8 1v-5l9-1 1-14h7l-2 14 13-2v5l-14 1v4l-2 17v1zM648 89c2-11 12-19 23-18 11 0 18 10 16 20-3 11-12 19-23 19s-18-11-16-21zm32 1c2-9-2-15-9-15-8 0-14 5-16 15-1 9 2 15 9 15 8 0 14-5 16-15zM714 87l18 3-1 4-13-1c3 4 5 10 4 16s-4 12-11 15l-6 2c-5-1-6-8-6-14 1-8 4-16 6-21h-7v-5h10c4-8 8-25 20-24 5 0 10 4 9 9l-4 7-2-2 1-3c1-3-2-5-4-6-5 0-8 7-14 20 0 0 0 0 0 0zm-2 5s0 0 0 0c-3 5-6 14-6 20-1 4 0 7 1 8l2-1c4-2 6-6 7-11 1-7-2-14-4-16zM827 125c-4 5-15 8-24 6-13-4-14-19-9-30 5-12 17-23 31-20 8 2 14 10 13 16l-7-1c0-4-3-8-8-10-10-2-19 9-23 17-5 12-3 20 5 22 6 2 13 0 15-3l7 3zM839 120c5-10 17-15 28-11 10 4 14 15 9 24-6 10-17 15-28 11-10-3-14-15-9-24zm30 10c5-8 3-14-4-17-8-2-15 1-19 10-4 8-3 14 4 17 7 2 14-1 19-10zM909 155l-6 7c-5 1-9 0-13-2-10-4-13-15-7-23 7-9 18-14 29-10 6 3 9 7 8 13l-4 5c1-7-1-11-6-13-7-3-16 0-21 7s-3 14 4 17c5 2 10 2 16-1zm25-32l-31 39c-1 2-1 4 3 5l6 1 1-2h-2c-2-1-1-2 1-5l25-32 4-3-7-3zM936 163c-4 6-3 12 4 16 3 1 7 2 14 1l1 5c-6 2-13 1-18-2-10-5-13-15-7-23 7-10 20-15 31-9 8 4 10 13 7 17-6 9-24 0-32-5zm2-3c10 4 22 10 25 4 1-2-1-7-6-10-6-3-14 0-19 6z"/>
  </g>
  <g fill="#FFF" stroke="#0A0F24" stroke-linejoin="bevel" stroke-miterlimit="10" stroke-width="2">
    <path d="M377 491l-16-9-13 8-6-3 44-28 8 4-16 43-5-3 4-12zm2-4l7-20h-1l-20 13 14 7zM427 517c-2 5-10 7-18 4l-9-7 4-2 4 3 3 1c5 2 9 2 10-1 1-2 0-5-1-10l-2-7c-7 5-15 9-21 9l-2-5c9-1 20-7 26-13 3 1 5 1 7 3l-4 5 1 6c2 6 3 12 2 14zM472 537v2c-5 2-9 1-9 1-3-1-3-3-2-5l10-13c3-5 2-11-3-13-5-1-10 1-19 8l-9 14-6-2 26-39 5 2-12 19c7-6 12-7 18-5 7 2 10 10 5 17l-9 12 1 1 4 1zM516 543l1 2c-3 4-8 7-14 6-7-2-9-5-8-10l4-8-10 1v-3l12-3c4-8 11-22 18-22 2-1 6 5 5 9-1 7-7 12-19 16l-3 7-1 2c-1 4 0 6 4 6 3 1 8 0 11-3zm-9-17c8-3 12-7 13-11 0-1 0-3-2-4l-11 15zM539 543c-2 6 2 11 9 12 4 0 8 0 14-3l2 4c-5 3-11 4-17 3-11-2-17-9-13-17 3-10 13-18 24-17 8 1 12 8 11 12-2 10-21 7-30 6zm2-4c10 1 22 2 22-3 1-3-2-6-7-7-7-1-13 4-15 10zM619 532c-8 13-18 25-28 36-4 6-10 8-18 6l3-4c4 1 7 0 10-4l4-5c-2-10-5-21-5-32l6 1c-1 6 2 16 4 26l17-25 7 1zM713 515c-1 16-5 33-11 47l-6 1-5-20c-2 6-7 15-11 21h-6c-1-14-1-30 1-45l5-1c-1 13-2 26-1 38 4-6 8-13 10-20h6l5 18c4-12 6-25 7-38l6-1zM732 532c3-5 11-9 13-10h9l-4 6c-6-2-16 5-18 10l-2 21h-6l2-24c1-4-1-4-4-5l6-3c1 1 4 2 4 5zM798 536c-2 5-4 10-10 12-9 2-13-2-13-10l1-18-8 2 1-4 13-4c0 6-2 17-1 23 0 5 2 7 6 6s7-4 9-8l2 1zm-19-35c2-1 4 0 4 3 0 2-1 4-4 5-2 0-4-1-4-3s1-4 4-5zM843 495v4l4 30c1 6-7 13-17 17-5 1-9 2-13 1l4-5c2 1 5 0 9-1 7-2 11-6 11-10l-1-7-11 8c-11 3-19-1-19-11-1-10 7-18 16-21 5-2 8-2 12 1l-1-4 6-2zm-3 22l-2-10c-3-4-7-5-12-3-6 2-11 9-11 15 1 6 7 10 13 8s10-6 12-10zM892 505l2 1-6 7c-3 1-4 0-5-3l-1-16c-1-6-6-9-11-7s-7 7-9 19l2 16-5 2-7-47 5-2 4 22c1-8 4-13 10-15 7-3 15 1 16 9l1 15c0 1 0 2 1 1l3-2zM915 488c1 3 4 4 8 2 3-1 5-5 6-9h2c0 6-2 11-7 14-7 4-12 2-14-3l-1-3-3-14-1-4-7 4-1-4 7-4-3-12 5-3 3 12 11-6 1 4-11 6 1 3 3 15 1 2z"/>
  </g>
  <path fill="#F8F95D" d="M1272 129l-1-3-14 4v-14h-4v14l-13-4-2 3 14 5-8 11 3 3 8-12 9 12 3-3-9-11zM1272 183l-1-4-14 5v-14h-4v14l-13-5-2 4 14 5-8 11 3 3 8-12 9 12 3-3-9-11zM1272 237l-1-4-14 5v-15h-4v15l-13-5-2 4 14 4-8 12 3 2 8-11 9 11 3-2-9-12zM1272 291l-1-4-14 5v-15h-4v15l-13-5-2 4 14 4-8 12 3 2 8-12 9 12 3-2-9-12zM1272 345l-1-4-14 4v-14h-4v14l-13-4-2 4 14 4-8 12 3 2 8-12 9 12 3-2-9-12zM1272 398l-1-3-14 4v-14h-4v14l-13-4-2 3 14 5-8 12 3 2 8-12 9 12 3-2-9-12zM1272 452l-1-3-14 4v-14h-4v14l-13-4-2 3 14 5-8 11 3 3 8-12 9 12 3-3-9-11zM1272 506l-1-4-14 5v-15h-4v15l-13-5-2 4 14 4-8 12 3 2 8-11 9 11 3-2-9-12zM1272 560l-1-4-14 5v-15h-4v15l-13-5-2 4 14 4-8 12 3 2 8-11 9 11 3-2-9-12zM1272 22l-1-4-14 4V8h-4v14l-13-4-2 4 14 4-8 12 3 2 8-12 9 12 3-2-9-12zM1272 614l-1-4-14 4v-14h-4v14l-13-4-2 4 14 4-8 12 3 2 8-12 9 12 3-2-9-12zM42 22l-1-4-14 4V8h-4v14L9 18l-1 4 14 4-9 12 3 2 9-12 8 12 3-2-8-12zM42 75l-1-3-14 4V62h-4v14L9 72l-1 3 14 5-9 12 3 2 9-12 8 12 3-2-8-12zM42 129l-1-3-14 4v-14h-4v14l-14-4-1 3 14 5-9 11 3 3 9-12 8 12 3-3-8-11zM42 183l-1-4-14 5v-14h-4v14l-14-5-1 4 14 5-9 11 3 3 9-12 8 12 3-3-8-11zM42 237l-1-4-14 5v-15h-4v15l-14-5-1 4 14 4-9 12 3 2 9-11 8 11 3-2-8-12zM42 291l-1-4-14 5v-15h-4v15l-14-5-1 4 14 4-9 12 3 2 9-12 8 12 3-2-8-12zM42 345l-1-4-14 4v-14h-4v14l-14-4-1 4 14 4-9 12 3 2 9-12 8 12 3-2-8-12zM42 398l-1-3-14 4v-14h-4v14l-14-4-1 3 14 5-9 12 3 2 9-12 8 12 3-2-8-12zM42 452l-1-3-14 4v-14h-4v14l-14-4-1 3 14 5-9 11 3 3 9-12 8 12 3-3-8-11zM42 506l-1-4-14 5v-15h-4v15l-14-5-1 4 14 4-9 12 3 2 9-11 8 11 3-2-8-12zM42 560l-1-4-14 5v-15h-4v15l-14-5-1 4 14 4-9 12 3 2 9-11 8 11 3-2-8-12zM42 614l-1-4-14 4v-14h-4v14l-14-4-1 4 14 4-9 12 3 2 9-12 8 12 3-2-8-12z"/>
</svg>
